<?xml version="1.0" encoding="UTF-8"?>
<svg xmlns="http://www.w3.org/2000/svg" viewBox="0 0 300 300">
  <defs>
    <linearGradient id="mainGradient" x1="0%" y1="0%" x2="100%" y2="100%">
      <stop offset="0%" style="stop-color:#1E40AF;stop-opacity:1" />
      <stop offset="100%" style="stop-color:#7C3AED;stop-opacity:1" />
    </linearGradient>
    <linearGradient id="accentGradient" x1="0%" y1="100%" x2="100%" y2="0%">
      <stop offset="0%" style="stop-color:#3B82F6;stop-opacity:1" />
      <stop offset="100%" style="stop-color:#6D28D9;stop-opacity:1" />
    </linearGradient>
  </defs>
  <g transform="translate(50, 50)">
    <rect x="0" y="0" width="200" height="200" rx="40" fill="url(#mainGradient)" />
    <path d="M60,60 A70,70 0 0,1 140,60 L140,85 A45,45 0 0,0 85,85 A45,45 0 0,0 85,140 L60,140 A70,70 0 0,1 60,60" fill="white" />
    <path d="M160,60 L160,140 L110,85 L110,140 L85,140 L85,85 L135,140 L135,60 Z" fill="url(#accentGradient)" />
    <circle cx="160" cy="60" r="8" fill="white" />
    <circle cx="85" cy="140" r="8" fill="white" />
  </g>
</svg>
